HIERARCHY
ROOT Hips
{
	OFFSET 0.000000 0.000000 0.000000
	CHANNELS 6 Xposition Yposition Zposition Zrotation Yrotation Xrotation 
	JOINT LHipJoint
	{
		OFFSET 0.000000 0.000000 0.000000
		CHANNELS 3 Zrotation Yrotation Xrotation
		JOINT LeftUpLeg
		{
			OFFSET 1.363060 -1.794630 0.839290
			CHANNELS 3 Zrotation Yrotation Xrotation
			JOINT LeftLeg
			{
				OFFSET 2.448110 -6.726130 0.000000
				CHANNELS 3 Zrotation Yrotation Xrotation
				JOINT LeftFoot
				{
					OFFSET 2.562200 -7.039590 0.000000
					CHANNELS 3 Zrotation Yrotation Xrotation
					JOINT LeftToeBase
					{
						OFFSET 0.157640 -0.433110 2.322550
						CHANNELS 3 Zrotation Yrotation Xrotation
						End Site
						{
							OFFSET 0.000000 0.000000 0.000000
						}
					}
				}
			}
		}
	}
	JOINT RHipJoint
	{
		OFFSET 0.000000 0.000000 0.000000
		CHANNELS 3 Zrotation Yrotation Xrotation
		JOINT RightUpLeg
		{
			OFFSET -1.305520 -1.794630 0.839290
			CHANNELS 3 Zrotation Yrotation Xrotation
			JOINT RightLeg
			{
				OFFSET -2.542530 -6.985550 0.000000
				CHANNELS 3 Zrotation Yrotation Xrotation
				JOINT RightFoot
				{
					OFFSET -2.568260 -7.056230 0.000000
					CHANNELS 3 Zrotation Yrotation Xrotation
					JOINT RightToeBase
					{
						OFFSET -0.164730 -0.452590 2.363150
						CHANNELS 3 Zrotation Yrotation Xrotation
						End Site
						{
							OFFSET 0.000000 0.000000 0.000000
						}
					}
				}
			}
		}
	}
	JOINT LowerBack
	{
		OFFSET 0.000000 0.000000 0.000000
		CHANNELS 3 Zrotation Yrotation Xrotation
		JOINT Spine
		{
			OFFSET 0.028270 2.035590 -0.193380
			CHANNELS 3 Zrotation Yrotation Xrotation
			JOINT Spine1
			{
				OFFSET 0.056720 2.048850 -0.042750
				CHANNELS 3 Zrotation Yrotation Xrotation
				JOINT Neck
				{
					OFFSET 0.000000 0.000000 0.000000
					CHANNELS 3 Zrotation Yrotation Xrotation
					JOINT Neck1
					{
						OFFSET -0.054170 1.746240 0.172020
						CHANNELS 3 Zrotation Yrotation Xrotation
						JOINT Head
						{
							OFFSET 0.104070 1.761360 -0.123970
							CHANNELS 3 Zrotation Yrotation Xrotation
							End Site
							{
								OFFSET 0.000000 0.000000 0.000000
							}
						}
					}
				}
				JOINT LeftShoulder
				{
					OFFSET 0.000000 0.000000 0.000000
					CHANNELS 3 Zrotation Yrotation Xrotation
					JOINT LeftArm
					{
						OFFSET 3.362410 1.200890 -0.311210
						CHANNELS 3 Zrotation Yrotation Xrotation
						JOINT LeftForeArm
						{
							OFFSET 4.983000 -0.000000 -0.000000
							CHANNELS 3 Zrotation Yrotation Xrotation
							JOINT LeftHand
							{
								OFFSET 3.483560 -0.000000 -0.000000
								CHANNELS 3 Zrotation Yrotation Xrotation
								JOINT LeftFingerBase
								{
									OFFSET 0.000000 0.000000 0.000000
									CHANNELS 3 Zrotation Yrotation Xrotation
									JOINT LeftHandIndex1
									{
										OFFSET 0.715260 -0.000000 -0.000000
										CHANNELS 3 Zrotation Yrotation Xrotation
										End Site
										{
											OFFSET 0.000000 0.000000 0.000000
										}
									}
								}
								JOINT LThumb
								{
									OFFSET 0.000000 0.000000 0.000000
									CHANNELS 3 Zrotation Yrotation Xrotation
									End Site
									{
										OFFSET 0.000000 0.000000 0.000000
									}
								}
							}
						}
					}
				}
				JOINT RightShoulder
				{
					OFFSET 0.000000 0.000000 0.000000
					CHANNELS 3 Zrotation Yrotation Xrotation
					JOINT RightArm
					{
						OFFSET -3.136600 1.374050 -0.404650
						CHANNELS 3 Zrotation Yrotation Xrotation
						JOINT RightForeArm
						{
							OFFSET -5.241900 -0.000000 -0.000000
							CHANNELS 3 Zrotation Yrotation Xrotation
							JOINT RightHand
							{
								OFFSET -3.444170 -0.000000 -0.000000
								CHANNELS 3 Zrotation Yrotation Xrotation
								JOINT RightFingerBase
								{
									OFFSET 0.000000 0.000000 0.000000
									CHANNELS 3 Zrotation Yrotation Xrotation
									JOINT RightHandIndex1
									{
										OFFSET -0.622530 -0.000000 -0.000000
										CHANNELS 3 Zrotation Yrotation Xrotation
										End Site
										{
											OFFSET 0.000000 0.000000 0.000000
										}
									}
								}
								JOINT RThumb
								{
									OFFSET 0.000000 0.000000 0.000000
									CHANNELS 3 Zrotation Yrotation Xrotation
									End Site
									{
										OFFSET 0.000000 0.000000 0.000000
									}
								}
							}
						}
					}
				}
			}
		}
	}
}
MOTION
Frames: 6
Frame Time: 0.008333
-6.005132 15.670642 -15.505799 27.519017 79.518464 33.385110 -4.050283 -2.279661 0.216827 -1.809841 6.804624 -23.777878 6.407947 15.279323 47.156808 3.782356 -5.752247 -10.157371 5.715400 -14.146800 -43.828600 -0.194779 1.445643 -2.620030 -5.544170 -4.273499 -41.582542 -14.396328 -19.587297 71.734999 2.098595 -10.960014 -13.379025 -0.367100 -3.891700 10.772300 -6.828126 1.848791 20.674047 0.239901 1.445271 -2.610475 4.596237 0.828063 -4.191011 -9.614162 -8.572489 -8.361084 11.139307 -9.994614 1.268466 6.467900 -4.386000 5.162800 -6.630016 1.064031 -1.528619 -78.316050 -13.452048 55.647083 20.726975 -34.592252 -8.026314 0.232263 -2.381644 6.718058 7.394595 25.786875 3.276300 -7.125000 0.000000 0.000000 -25.598500 56.432800 -7.519700 1.343613 0.443630 -0.114122 65.468037 22.903237 21.854215 -43.394001 47.729983 -22.100279 0.168251 -0.146281 -25.318898 -13.887621 15.369153 -3.823100 7.125000 0.000000 0.000000 9.191200 -14.100700 6.764300 
-6.008566 15.681257 -15.442005 26.432142 78.439032 32.346685 -4.102681 -2.238928 0.321863 -1.999315 7.188754 -23.468807 6.232427 15.160325 46.668806 3.596547 -5.251766 -9.891921 5.678600 -14.109500 -43.677800 -0.241467 1.437442 -2.673362 -5.810399 -4.338096 -41.938274 -14.803529 -19.709350 72.876690 2.046942 -10.626942 -12.498366 -0.317300 -3.620900 10.012400 -7.283311 1.758370 20.339043 0.216026 1.242670 -2.619373 4.701613 0.706006 -3.975575 -9.686640 -8.436849 -8.842040 11.155359 -9.770350 1.379945 6.496200 -4.259400 5.299000 -6.618293 1.044286 -1.512449 -78.544407 -14.674980 56.842105 20.909423 -34.703757 -8.097319 0.228697 -2.369056 6.607935 7.441249 25.737312 3.296400 -7.125000 0.000000 0.000000 -25.499900 56.389500 -7.460600 1.322106 0.426762 -0.157425 66.104942 21.286335 22.693150 -42.937230 47.592051 -21.747243 0.204522 -0.126673 -25.750463 -14.590614 14.792352 -3.888200 7.125000 0.000000 0.000000 8.687600 -14.625100 6.286500 
-6.006901 15.692392 -15.383519 23.809645 77.691753 29.751799 -4.097763 -2.136808 0.431738 -1.727234 7.459882 -23.030678 6.027076 15.000413 46.022775 3.310172 -4.462347 -9.516750 5.781000 -14.212700 -44.096400 -0.259413 1.436012 -2.693996 -5.573200 -4.476534 -42.094302 -15.172871 -19.814734 73.937764 1.945825 -10.042211 -11.172497 -0.147000 -2.470500 6.807900 -6.978937 1.538092 20.136331 0.202984 1.000285 -2.635237 4.394143 0.571212 -3.817230 -9.527929 -8.343090 -9.417811 10.964301 -9.630066 1.544587 6.372300 -4.185100 5.487100 -6.604852 1.010789 -1.510976 -78.649727 -15.730753 58.081698 21.233769 -34.942406 -8.254233 0.229113 -2.369810 6.390453 7.573382 25.963621 3.388600 -7.125000 0.000000 0.000000 -25.527300 56.623900 -7.617500 1.307103 0.416255 -0.207224 66.864403 19.712045 23.454227 -42.246119 47.321253 -21.206290 0.230558 -0.128561 -25.728782 -15.233302 14.538451 -4.007900 7.125000 0.000000 0.000000 8.235400 -14.814000 5.918500 
-6.006276 15.716016 -15.310567 20.670561 77.118761 26.712625 -4.057328 -1.995189 0.550099 -1.197897 7.685874 -22.596456 5.797441 14.796138 45.207099 3.081153 -3.846247 -8.951873 5.869600 -14.300800 -44.456100 -0.257342 1.449390 -2.692398 -4.970643 -4.642625 -42.280576 -15.503765 -19.899965 74.917552 1.819207 -9.364673 -9.711647 -0.035100 -1.209700 3.326000 -6.529578 1.184473 19.968868 0.249828 0.611818 -2.690166 4.307299 0.370251 -3.829095 -9.362721 -8.065143 -9.910345 10.641490 -9.239568 1.712390 6.191100 -4.008700 5.605600 -6.553414 0.960170 -1.529737 -78.778657 -16.472458 58.856146 21.718824 -35.359564 -8.530126 0.239898 -2.366558 6.020175 7.547430 26.125157 3.395700 -7.125000 0.000000 0.000000 -25.665000 56.762800 -7.750600 1.318236 0.416036 -0.273090 67.712432 18.114456 24.537053 -41.656708 47.091409 -20.728343 0.232452 -0.139492 -25.543666 -15.279592 14.661720 -4.055400 7.125000 0.000000 0.000000 8.207100 -14.673600 5.922600 
-6.000136 15.744843 -15.222734 19.441032 76.225395 25.391600 -4.090147 -1.863482 0.721430 -1.070964 8.022470 -21.906724 5.518520 14.572255 44.293567 2.874559 -3.299683 -8.469155 5.907100 -14.337700 -44.607700 -0.243830 1.457398 -2.729439 -4.840142 -4.655085 -42.170296 -15.814827 -19.995516 75.837098 1.550845 -8.230285 -8.290462 -0.004100 -0.411900 1.131800 -6.790954 0.967416 19.811417 0.290452 0.296494 -2.693880 4.638239 0.184340 -3.632302 -9.417119 -7.725889 -10.510085 10.364979 -8.724529 1.850007 6.074400 -3.767600 5.703800 -6.482871 0.934662 -1.532780 -79.178222 -17.269559 59.114378 22.172592 -35.783068 -8.812225 0.253658 -2.341918 5.689672 7.446529 25.804626 3.310600 -7.125000 0.000000 0.000000 -25.512300 56.433200 -7.492200 1.337646 0.372990 -0.334734 68.226623 16.811527 25.405852 -41.070769 46.850634 -20.267200 0.248762 -0.135570 -25.488197 -15.648473 14.602480 -4.146200 7.125000 0.000000 0.000000 7.945400 -14.697600 5.725800 
-5.987648 15.771068 -15.124702 17.895644 75.222450 23.776690 -4.101761 -1.701182 0.906777 -0.867166 8.470579 -21.125978 5.228445 14.321633 43.282385 2.662025 -2.638458 -8.445278 6.187400 -14.607500 -45.729300 -0.206197 1.473329 -2.775482 -4.586113 -4.580706 -41.952874 -16.069508 -20.088701 76.623241 1.235412 -6.920297 -6.782370 -0.000700 0.176600 -0.485300 -7.034558 0.838961 19.536722 0.308547 0.113395 -2.666452 4.837695 0.052606 -3.254583 -9.281665 -7.493256 -11.244635 10.162918 -8.393103 2.012691 5.929800 -3.600100 5.864300 -6.408115 0.924536 -1.533343 -79.346920 -18.056854 59.429281 22.775140 -36.363427 -9.198390 0.269463 -2.319569 4.999352 7.546820 25.446468 3.323500 -7.125000 0.000000 0.000000 -25.133100 56.117900 -7.174100 1.361738 0.298497 -0.392172 68.694868 15.745644 25.899989 -40.282621 46.487606 -19.666811 0.272290 -0.130865 -25.345172 -16.210535 14.432779 -4.260900 7.125000 0.000000 0.000000 7.545700 -14.814700 5.413400 
